<svg xmlns="http://www.w3.org/2000/svg" xmlns:xlink="http://www.w3.org/1999/xlink" width="400" height="400" viewBox="0 0 400 400"><g data-name="icon" fill="#f9be37" data="id:7389907" transform="translate(16.323573499863855, 16.32308653437963) scale(3.6735274789980807)">
    
 <path d="m42.102 39.605h-4.4805c-0.53906 0-0.97656-0.4375-0.97656-0.97656v-5.9258c0-0.53906 0.4375-0.97656 0.97656-0.97656h4.4805c0.53906 0 0.97656 0.4375 0.97656 0.97656v5.9258c0 0.53906-0.4375 0.97656-0.97656 0.97656zm-3.5-1.9531h2.5273v-3.9727h-2.5273z"/>
 <path d="m52.238 39.605h-4.4805c-0.53906 0-0.97656-0.4375-0.97656-0.97656v-5.9258c0-0.53906 0.4375-0.97656 0.97656-0.97656h4.4805c0.53906 0 0.97656 0.4375 0.97656 0.97656v5.9258c0 0.53906-0.4375 0.97656-0.97656 0.97656zm-3.5-1.9531h2.5273v-3.9727h-2.5273z"/>
 <path d="m62.375 39.605h-4.4805c-0.53906 0-0.97656-0.4375-0.97656-0.97656v-5.9258c0-0.53906 0.4375-0.97656 0.97656-0.97656h4.4805c0.53906 0 0.97656 0.4375 0.97656 0.97656v5.9258c0 0.53906-0.4375 0.97656-0.97656 0.97656zm-3.5-1.9531h2.5273v-3.9727h-2.5273z"/>
 <path d="m42.102 50.359h-4.4805c-0.53906 0-0.97656-0.4375-0.97656-0.97656v-5.9258c0-0.53906 0.4375-0.97656 0.97656-0.97656h4.4805c0.53906 0 0.97656 0.4375 0.97656 0.97656v5.9258c0 0.53906-0.4375 0.97656-0.97656 0.97656zm-3.5-1.9531h2.5273v-3.9727h-2.5273z"/>
 <path d="m52.238 50.359h-4.4805c-0.53906 0-0.97656-0.4375-0.97656-0.97656v-5.9258c0-0.53906 0.4375-0.97656 0.97656-0.97656h4.4805c0.53906 0 0.97656 0.4375 0.97656 0.97656v5.9258c0 0.53906-0.4375 0.97656-0.97656 0.97656zm-3.5-1.9531h2.5273v-3.9727h-2.5273z"/>
 <path d="m62.375 50.359h-4.4805c-0.53906 0-0.97656-0.4375-0.97656-0.97656v-5.9258c0-0.53906 0.4375-0.97656 0.97656-0.97656h4.4805c0.53906 0 0.97656 0.4375 0.97656 0.97656v5.9258c0 0.53906-0.4375 0.97656-0.97656 0.97656zm-3.5-1.9531h2.5273v-3.9727h-2.5273z"/>
 <path d="m42.102 61.113h-4.4805c-0.53906 0-0.97656-0.4375-0.97656-0.97656v-5.9258c0-0.53906 0.4375-0.97656 0.97656-0.97656h4.4805c0.53906 0 0.97656 0.4375 0.97656 0.97656v5.9258c0 0.53906-0.4375 0.97656-0.97656 0.97656zm-3.5-1.9531h2.5273v-3.9727h-2.5273z"/>
 <path d="m52.238 61.113h-4.4805c-0.53906 0-0.97656-0.4375-0.97656-0.97656v-5.9258c0-0.53906 0.4375-0.97656 0.97656-0.97656h4.4805c0.53906 0 0.97656 0.4375 0.97656 0.97656v5.9258c0 0.53906-0.4375 0.97656-0.97656 0.97656zm-3.5-1.9531h2.5273v-3.9727h-2.5273z"/>
 <path d="m62.375 61.113h-4.4805c-0.53906 0-0.97656-0.4375-0.97656-0.97656v-5.9258c0-0.53906 0.4375-0.97656 0.97656-0.97656h4.4805c0.53906 0 0.97656 0.4375 0.97656 0.97656v5.9258c0 0.53906-0.4375 0.97656-0.97656 0.97656zm-3.5-1.9531h2.5273v-3.9727h-2.5273z"/>
 <path d="m42.102 71.867h-4.4805c-0.53906 0-0.97656-0.4375-0.97656-0.97656v-5.9258c0-0.53906 0.4375-0.97656 0.97656-0.97656h4.4805c0.53906 0 0.97656 0.4375 0.97656 0.97656v5.9258c0 0.53906-0.4375 0.97656-0.97656 0.97656zm-3.5-1.9531h2.5273v-3.9727h-2.5273z"/>
 <path d="m52.238 71.867h-4.4805c-0.53906 0-0.97656-0.4375-0.97656-0.97656v-5.9258c0-0.53906 0.4375-0.97656 0.97656-0.97656h4.4805c0.53906 0 0.97656 0.4375 0.97656 0.97656v5.9258c0 0.53906-0.4375 0.97656-0.97656 0.97656zm-3.5-1.9531h2.5273v-3.9727h-2.5273z"/>
 <path d="m62.375 71.867h-4.4805c-0.53906 0-0.97656-0.4375-0.97656-0.97656v-5.9258c0-0.53906 0.4375-0.97656 0.97656-0.97656h4.4805c0.53906 0 0.97656 0.4375 0.97656 0.97656v5.9258c0 0.53906-0.4375 0.97656-0.97656 0.97656zm-3.5-1.9531h2.5273v-3.9727h-2.5273z"/>
 <path d="m56.246 93.32h-12.492c-0.53906 0-0.97656-0.4375-0.97656-0.97656v-15.086c0-0.53906 0.4375-0.97656 0.97656-0.97656h12.492c0.53906 0 0.97656 0.4375 0.97656 0.97656v15.086c0 0.53906-0.4375 0.97656-0.97656 0.97656zm-11.516-1.9531h10.539v-13.133h-10.539z"/>
 <path d="m50.094 93.082c-0.53906 0-0.97656-0.4375-0.97656-0.97656v-14.145c0-0.53906 0.4375-0.97656 0.97656-0.97656s0.97656 0.4375 0.97656 0.97656v14.145c0 0.53906-0.4375 0.97656-0.97656 0.97656z"/>
 <path d="m85.242 93.555h-70.484c-0.53906 0-0.97656-0.4375-0.97656-0.97656s0.4375-0.97656 0.97656-0.97656h70.484c0.53906 0 0.97656 0.4375 0.97656 0.97656s-0.4375 0.97656-0.97656 0.97656z"/>
 <path d="m80.059 93.555h-11.359c-0.53906 0-0.97656-0.4375-0.97656-0.97656v-5.5977c0-2.7539 2.2383-4.9922 4.9922-4.9922s4.9766 2.2227 4.9922 4.9609c2.1055 0.14453 3.7734 1.9023 3.7734 4.0391 0 0.74219-0.20312 1.4688-0.58984 2.0977-0.17578 0.28906-0.49219 0.46875-0.83594 0.46875zm-10.383-1.9531h9.7578c0.0625-0.19922 0.09375-0.40625 0.09375-0.61328 0-1.1562-0.94141-2.0977-2.0977-2.0977-0.19141 0-0.38281 0.027344-0.56641 0.082031-0.33984 0.097656-0.70312 0.007813-0.95703-0.23828s-0.35156-0.60938-0.26172-0.94922c0.074219-0.28125 0.10938-0.54297 0.10938-0.80469 0-1.6758-1.3633-3.0391-3.0391-3.0391-1.6758 0-3.0391 1.3633-3.0391 3.0391z"/>
 <path d="m76.961 88.75c-0.042969 0-0.085938-0.003906-0.13281-0.007812-0.53516-0.070313-0.91016-0.5625-0.83594-1.0977 1.5703-11.621 7.4922-18.309 7.7461-18.586 0.35938-0.40234 0.97656-0.43359 1.3789-0.070313 0.39844 0.35938 0.43359 0.97656 0.070312 1.3789-0.058594 0.0625-5.7773 6.5508-7.2617 17.543-0.066406 0.48828-0.48438 0.84766-0.96484 0.84766z"/>
 <path d="m87.805 77.5c-0.10156 0-0.20703-0.015625-0.30859-0.050781-0.51172-0.17188-0.78906-0.72266-0.61719-1.2344 0.015625-0.046875 0.83984-2.6289-0.17188-4.2383-0.45312-0.72266-1.2305-1.1484-2.375-1.3008-0.38672-0.050781-0.70703-0.32812-0.8125-0.70703s0.027344-0.78125 0.33203-1.0234c0.37891-0.30078 3.7773-2.9258 6.6953-2.1016 1.3398 0.37891 2.3125 1.3906 2.8906 3 0.18359 0.50781-0.082031 1.0664-0.58984 1.25-0.50781 0.18359-1.0664-0.082031-1.25-0.58984-0.35547-0.99609-0.875-1.5781-1.582-1.7812-0.97656-0.27734-2.2383 0.15234-3.2734 0.6875 0.67578 0.375 1.2188 0.88672 1.625 1.5352 1.5 2.4023 0.41406 5.7422 0.36328 5.8867-0.13672 0.41016-0.51562 0.66797-0.92578 0.66797z"/>
 <path d="m76.926 71.727c-0.21484 0-0.42969-0.070312-0.60938-0.21484-0.42188-0.33594-0.49219-0.94922-0.15625-1.3711 0.09375-0.11719 2.2969-2.8516 5.1289-2.9062 0.76563-0.015625 1.4922 0.16016 2.1719 0.52344-0.11719-1.1602-0.44531-2.4492-1.2109-3.1172-0.55469-0.48438-1.3242-0.59766-2.3555-0.35547-0.52344 0.125-1.0508-0.19922-1.1758-0.72266s0.19922-1.0508 0.72266-1.1758c1.6641-0.39453 3.043-0.13281 4.0938 0.78516 2.2852 1.9922 1.9414 6.2734 1.8945 6.7539-0.039063 0.39062-0.30469 0.71875-0.67969 0.83594-0.375 0.11719-0.78125 0-1.0352-0.29688-0.75-0.875-1.5391-1.293-2.3867-1.2773-1.9062 0.03125-3.6289 2.1484-3.6445 2.1719-0.19141 0.24219-0.47656 0.36719-0.76562 0.36719z"/>
 <path d="m31.301 93.555h-11.359c-0.33984 0-0.65625-0.17578-0.83594-0.46875-0.38281-0.63281-0.58984-1.3594-0.58984-2.0977 0-2.1406 1.668-3.8984 3.7734-4.0391 0.019532-2.7383 2.25-4.9609 4.9922-4.9609s4.9922 2.2383 4.9922 4.9922v5.5977c0 0.53906-0.4375 0.97656-0.97656 0.97656zm-10.734-1.9531h9.7578v-4.6211c0-1.6758-1.3633-3.0391-3.0391-3.0391-1.6758 0-3.0391 1.3633-3.0391 3.0391 0 0.25781 0.035156 0.52344 0.10938 0.80469 0.089843 0.33984-0.007813 0.70312-0.26172 0.94922s-0.61719 0.33594-0.95703 0.23828c-0.18359-0.054687-0.375-0.082031-0.56641-0.082031-1.1562 0-2.0977 0.94141-2.0977 2.0977 0 0.21094 0.03125 0.41797 0.09375 0.61328z"/>
 <path d="m23.039 88.75c-0.48047 0-0.90234-0.35547-0.96484-0.84766-1.4844-10.992-7.2031-17.477-7.2617-17.543-0.35938-0.40234-0.32812-1.0195 0.074219-1.3789 0.40234-0.35938 1.0156-0.32812 1.3789 0.070312 0.25 0.27734 6.1758 6.9648 7.7461 18.586 0.070312 0.53516-0.30469 1.0273-0.83594 1.0977-0.042969 0.007813-0.089843 0.007813-0.13281 0.007813z"/>
 <path d="m12.195 77.5c-0.41016 0-0.78906-0.25781-0.92578-0.66797-0.046875-0.14062-1.1367-3.4844 0.36328-5.8867 0.40625-0.64844 0.94922-1.1602 1.625-1.5352-1.0352-0.53516-2.2969-0.96484-3.2734-0.6875-0.70703 0.20312-1.2266 0.78516-1.582 1.7812-0.18359 0.50781-0.74219 0.77344-1.25 0.58984-0.50781-0.18359-0.77344-0.74219-0.58984-1.25 0.57812-1.6094 1.5508-2.6211 2.8906-3 2.918-0.82812 6.3164 1.7969 6.6953 2.1016 0.30469 0.24609 0.4375 0.64844 0.33203 1.0234-0.10547 0.37891-0.42578 0.65625-0.8125 0.70703-1.1406 0.15234-1.918 0.57812-2.375 1.3008-1.0156 1.6172-0.17969 4.2109-0.17188 4.2383 0.16797 0.51172-0.10938 1.0625-0.62109 1.2344-0.10156 0.035156-0.20703 0.050781-0.30859 0.050781z"/>
 <path d="m23.074 71.727c-0.28516 0-0.57031-0.125-0.76562-0.36719-0.015625-0.019531-1.7383-2.1406-3.6445-2.1719-0.84766-0.011719-1.6367 0.40234-2.3867 1.2773-0.25391 0.29688-0.66406 0.41406-1.0352 0.29688-0.375-0.11719-0.64063-0.44922-0.67969-0.83594-0.046875-0.48047-0.39062-4.7617 1.8945-6.7539 1.0508-0.91797 2.4258-1.1797 4.0938-0.78516 0.52344 0.125 0.84766 0.65234 0.72266 1.1758s-0.65234 0.84766-1.1758 0.72266c-1.0273-0.24609-1.8008-0.12891-2.3555 0.35547-0.76563 0.66797-1.0938 1.957-1.2109 3.1172 0.68359-0.36328 1.4102-0.53906 2.1719-0.52344 2.832 0.054687 5.0391 2.7891 5.1289 2.9062 0.33594 0.42188 0.26562 1.0352-0.15625 1.3711-0.17969 0.14062-0.39453 0.21094-0.60547 0.21094z"/>
 <path d="m57.617 8.3984h-0.97656c-0.53906 0-0.97656-0.4375-0.97656-0.97656s0.4375-0.97656 0.97656-0.97656h0.97656c0.53906 0 0.97656 0.4375 0.97656 0.97656s-0.4375 0.97656-0.97656 0.97656z"/>
 <path d="m67.543 20.836h-35.082c-1.3828 0-2.5078-1.125-2.5078-2.5078v-9.375c0-1.3828 1.125-2.5078 2.5078-2.5078h17.738c0.53906 0 0.97656 0.4375 0.97656 0.97656s-0.4375 0.97656-0.97656 0.97656h-17.738c-0.30469 0-0.55469 0.25-0.55469 0.55469v9.375c0 0.30469 0.25 0.55469 0.55469 0.55469h35.082c0.30469 0 0.55469-0.25 0.55469-0.55469v-9.375c0-0.30469-0.25-0.55469-0.55469-0.55469h-4.0664c-0.53906 0-0.97656-0.4375-0.97656-0.97656s0.4375-0.97656 0.97656-0.97656h4.0664c1.3828 0 2.5078 1.125 2.5078 2.5078v9.375c0 1.3828-1.125 2.5078-2.5078 2.5078z"/>
 <path d="m41.395 25.426h-3.0625c-0.53906 0-0.97656-0.4375-0.97656-0.97656v-4.2422c0-0.53906 0.4375-0.97656 0.97656-0.97656h3.0625c0.53906 0 0.97656 0.4375 0.97656 0.97656v4.2422c0 0.53906-0.4375 0.97656-0.97656 0.97656zm-2.0859-1.9531h1.1094v-2.2891h-1.1094z"/>
 <path d="m61.668 25.426h-3.0625c-0.53906 0-0.97656-0.4375-0.97656-0.97656v-4.2422c0-0.53906 0.4375-0.97656 0.97656-0.97656h3.0625c0.53906 0 0.97656 0.4375 0.97656 0.97656v4.2422c0 0.53906-0.4375 0.97656-0.97656 0.97656zm-2.0859-1.9531h1.1094v-2.2891h-1.1094z"/>
 <path d="m31.375 60.547c-0.53906 0-0.97656-0.4375-0.97656-0.97656v-0.97656c0-0.53906 0.4375-0.97656 0.97656-0.97656s0.97656 0.4375 0.97656 0.97656v0.97656c0 0.53906-0.4375 0.97656-0.97656 0.97656z"/>
 <path d="m68.625 93.32h-37.246c-0.53906 0-0.97656-0.4375-0.97656-0.97656v-26.133c0-0.53906 0.4375-0.97656 0.97656-0.97656 0.53906 0 0.97656 0.4375 0.97656 0.97656v25.156h35.293v-65.941h-35.293v26.723c0 0.53906-0.4375 0.97656-0.97656 0.97656-0.53906 0-0.97656-0.4375-0.97656-0.97656l-0.003906-27.699c0-0.53906 0.4375-0.97656 0.97656-0.97656h37.246c0.53906 0 0.97656 0.4375 0.97656 0.97656v67.891c0 0.53906-0.4375 0.97656-0.97656 0.97656z"/>
 <path d="m36.035 11.035v1.8945h2.8906v-1.8945c0-0.26953 0.0625-0.47266 0.18359-0.60938s0.28125-0.20312 0.48047-0.20312c0.20312 0 0.36328 0.066406 0.48828 0.19922s0.1875 0.33594 0.1875 0.60938v5.2109c0 0.27344-0.0625 0.47656-0.1875 0.61328s-0.28906 0.20312-0.48828 0.20312c-0.20312 0-0.36328-0.070313-0.48438-0.20703-0.12109-0.13672-0.17969-0.33984-0.17969-0.60937v-2.2227h-2.8906v2.2227c0 0.27344-0.0625 0.47656-0.1875 0.61328s-0.28906 0.20312-0.48828 0.20312c-0.20312 0-0.36328-0.070313-0.48438-0.20703-0.12109-0.13672-0.17969-0.33984-0.17969-0.60937v-5.2109c0-0.26953 0.058594-0.47266 0.17969-0.60938 0.11719-0.13672 0.28125-0.20312 0.48438-0.20312s0.36328 0.066406 0.48828 0.19922c0.125 0.13281 0.1875 0.33594 0.1875 0.60938z"/>
 <path d="m44.613 10.223c0.6875 0 1.2734 0.14062 1.7656 0.41797 0.49219 0.27734 0.86328 0.67188 1.1172 1.1875 0.25391 0.51172 0.37891 1.1133 0.37891 1.8047 0 0.51172-0.070312 0.97656-0.20703 1.3945-0.13672 0.41797-0.34766 0.78125-0.62109 1.0859-0.27734 0.30469-0.61719 0.54297-1.0195 0.70312-0.40234 0.16406-0.86328 0.24219-1.3828 0.24219-0.51562 0-0.98047-0.082032-1.3906-0.25-0.41016-0.16797-0.75-0.40234-1.0234-0.70703-0.27344-0.30469-0.48047-0.66797-0.62109-1.0977-0.14062-0.42578-0.21094-0.89062-0.21094-1.3828 0-0.50781 0.074218-0.97266 0.21875-1.3984 0.14453-0.42578 0.35547-0.78516 0.63281-1.082s0.61328-0.52734 1.0117-0.68359c0.39844-0.15625 0.84766-0.23828 1.3516-0.23828zm1.9062 3.4023c0-0.48438-0.078125-0.90234-0.23438-1.2578-0.15625-0.35547-0.37891-0.625-0.67188-0.80469-0.28906-0.18359-0.625-0.27344-1-0.27344-0.26562 0-0.51562 0.050782-0.74219 0.15234-0.22656 0.10156-0.42188 0.24609-0.58594 0.44141-0.16406 0.19141-0.29297 0.4375-0.38672 0.73828-0.09375 0.30078-0.14063 0.63672-0.14063 1.0078 0 0.375 0.046876 0.71484 0.14063 1.0195 0.09375 0.30469 0.22656 0.55469 0.40234 0.75391 0.17188 0.19922 0.37109 0.35156 0.59375 0.44922 0.22266 0.097657 0.46875 0.14844 0.73828 0.14844 0.34375 0 0.65625-0.085938 0.94531-0.25781 0.28516-0.17188 0.51562-0.4375 0.6875-0.79297 0.17188-0.35938 0.25391-0.79688 0.25391-1.3203z"/>
 <path d="m52.965 11.441h-1.4609v4.8047c0 0.27734-0.0625 0.48047-0.18359 0.61719-0.125 0.13281-0.28125 0.19922-0.47656 0.19922-0.19922 0-0.35938-0.066406-0.48438-0.20312s-0.1875-0.33984-0.1875-0.61328v-4.8047h-1.4609c-0.22656 0-0.39844-0.050781-0.50781-0.15234-0.11328-0.10156-0.16797-0.23437-0.16797-0.39844 0-0.17188 0.058594-0.30469 0.17188-0.40625 0.11719-0.097656 0.28516-0.14844 0.50391-0.14844h4.2578c0.23047 0 0.40234 0.050781 0.51562 0.15234 0.11328 0.10156 0.16797 0.23438 0.16797 0.40234 0 0.16406-0.058594 0.29688-0.17188 0.39844-0.11328 0.10156-0.28516 0.15234-0.51562 0.15234z"/>
 <path d="m58.801 11.367h-3.0195v1.625h2.7773c0.20312 0 0.35547 0.046874 0.45703 0.13672s0.15234 0.21094 0.15234 0.36328c0 0.14844-0.050781 0.27344-0.14844 0.36719-0.097656 0.09375-0.25391 0.14062-0.46094 0.14062h-2.7773v1.8828h3.1211c0.21094 0 0.36719 0.046876 0.47656 0.14844 0.10547 0.097656 0.16016 0.22656 0.16016 0.39062 0 0.15625-0.054687 0.28516-0.16016 0.38281-0.10547 0.097656-0.26562 0.14844-0.47656 0.14844h-3.6406c-0.29297 0-0.5-0.066406-0.62891-0.19531-0.12891-0.12891-0.19141-0.33984-0.19141-0.625v-4.9727c0-0.19141 0.027344-0.35156 0.085938-0.47266s0.14844-0.21094 0.26953-0.26562 0.27734-0.082031 0.46875-0.082031h3.5352c0.21484 0 0.37109 0.046875 0.47656 0.14062 0.10547 0.09375 0.15625 0.21875 0.15625 0.37109 0 0.15625-0.050782 0.28125-0.15625 0.375-0.10547 0.09375-0.26172 0.14063-0.47656 0.14063z"/>
 <path d="m61.918 11.035v4.8125h2.7148c0.21484 0 0.38281 0.050782 0.5 0.15625 0.11719 0.10547 0.17188 0.23828 0.17188 0.39844 0 0.16406-0.058594 0.29297-0.17188 0.39453-0.11328 0.10156-0.28125 0.15234-0.5 0.15234h-3.2344c-0.29297 0-0.5-0.066407-0.62891-0.19531-0.12891-0.12891-0.19141-0.33984-0.19141-0.625v-5.0938c0-0.26953 0.0625-0.47266 0.18359-0.60938 0.12109-0.13672 0.28125-0.20312 0.48047-0.20312 0.20312 0 0.36328 0.066406 0.48828 0.19922s0.1875 0.33594 0.1875 0.60938z"/>

    </g></svg>